<svg width="100" height="32" viewBox="0 0 100 32" fill="none" xmlns="http://www.w3.org/2000/svg">
<path  d="M15.4948 25.8368C12.1047 25.6295 8.8583 23.5559 7.28006 20.5255C5.81542 17.7133 5.83846 14.1805 7.33542 11.3898C9.01126 8.26594 12.3354 6.36098 16.0148 6.19714C16.0148 6.19714 16.929 6.13858 17.5393 5.79202C19.3498 4.76322 19.6202 1.72642 17.6743 0.486418C17.1505 0.152658 16.5252 -0.00190234 15.9018 1.76635e-05C9.75494 0.0588977 3.81094 3.90018 1.31238 9.59907C-0.787466 14.3892 -0.350666 20.1981 2.50214 24.64C4.77254 28.1748 8.47526 30.7597 12.5828 31.6535C18.2039 32.8768 24.4302 30.7978 28.1876 26.4141C31.913 22.0672 33.0513 15.6416 30.9649 10.2474C29.7687 7.1549 27.6494 4.33474 24.8135 2.6381C24.6654 2.54946 24.5102 2.4765 24.3502 2.41826C27.203 4.86146 29.0116 8.48675 29.0116 12.5303C29.0116 19.88 23.0369 25.8468 15.6772 25.8468C15.617 25.8468 15.6109 25.8439 15.4948 25.8368V25.8368Z" fill="#1292EE"/>
<path d="M36.3714 22V10.12H44.3943V12.3657H39.0457V14.6971H43.7943V16.8914H39.0457V19.7543H44.7886V22H36.3714ZM49.4419 19.8229C49.5676 19.8343 49.7105 19.8457 49.8705 19.8571C50.0419 19.8571 50.2419 19.8571 50.4705 19.8571C51.8076 19.8571 52.7962 19.52 53.4362 18.8457C54.0876 18.1714 54.4133 17.24 54.4133 16.0514C54.4133 14.8057 54.1048 13.8629 53.4876 13.2229C52.8705 12.5829 51.8933 12.2629 50.5562 12.2629C50.3733 12.2629 50.1848 12.2686 49.9905 12.28C49.7962 12.28 49.6133 12.2914 49.4419 12.3143V19.8229ZM57.1733 16.0514C57.1733 17.08 57.0133 17.9771 56.6933 18.7429C56.3733 19.5086 55.9162 20.1429 55.3219 20.6457C54.7391 21.1486 54.0248 21.5257 53.1791 21.7771C52.3333 22.0286 51.3848 22.1543 50.3333 22.1543C49.8533 22.1543 49.2933 22.1314 48.6533 22.0857C48.0133 22.0514 47.3848 21.9714 46.7676 21.8457V10.2743C47.3848 10.16 48.0248 10.0857 48.6876 10.0514C49.3619 10.0057 49.9391 9.98286 50.4191 9.98286C51.4362 9.98286 52.3562 10.0971 53.1791 10.3257C54.0133 10.5543 54.7276 10.9143 55.3219 11.4057C55.9162 11.8971 56.3733 12.5257 56.6933 13.2914C57.0133 14.0571 57.1733 14.9771 57.1733 16.0514ZM59.15 10.7371L61.7043 10.3257V12.9829H64.7729V15.1086H61.7043V18.28C61.7043 18.8171 61.7957 19.2457 61.9786 19.5657C62.1729 19.8857 62.5557 20.0457 63.1271 20.0457C63.4014 20.0457 63.6814 20.0229 63.9671 19.9771C64.2643 19.92 64.5329 19.8457 64.7729 19.7543L65.1329 21.7429C64.8243 21.8686 64.4814 21.9771 64.1043 22.0686C63.7271 22.16 63.2643 22.2057 62.7157 22.2057C62.0186 22.2057 61.4414 22.1143 60.9843 21.9314C60.5271 21.7371 60.1614 21.4743 59.8871 21.1429C59.6129 20.8 59.4186 20.3886 59.3043 19.9086C59.2014 19.4286 59.15 18.8971 59.15 18.3143V10.7371ZM66.0895 17.56C66.0895 16.76 66.2095 16.0629 66.4495 15.4686C66.7009 14.8629 67.0267 14.36 67.4267 13.96C67.8267 13.56 68.2838 13.2571 68.7981 13.0514C69.3238 12.8457 69.8609 12.7429 70.4095 12.7429C71.6895 12.7429 72.7009 13.1371 73.4438 13.9257C74.1867 14.7029 74.5581 15.8514 74.5581 17.3714C74.5581 17.52 74.5524 17.6857 74.5409 17.8686C74.5295 18.04 74.5181 18.1943 74.5067 18.3314H68.7124C68.7695 18.8571 69.0152 19.2743 69.4495 19.5829C69.8838 19.8914 70.4667 20.0457 71.1981 20.0457C71.6667 20.0457 72.1238 20.0057 72.5695 19.9257C73.0267 19.8343 73.3981 19.7257 73.6838 19.6L74.0267 21.6743C73.8895 21.7429 73.7067 21.8114 73.4781 21.88C73.2495 21.9486 72.9924 22.0057 72.7067 22.0514C72.4324 22.1086 72.1352 22.1543 71.8152 22.1886C71.4952 22.2229 71.1752 22.24 70.8552 22.24C70.0438 22.24 69.3352 22.12 68.7295 21.88C68.1352 21.64 67.6381 21.3143 67.2381 20.9029C66.8495 20.48 66.5581 19.9829 66.3638 19.4114C66.1809 18.84 66.0895 18.2229 66.0895 17.56ZM72.0895 16.5829C72.0781 16.3657 72.0381 16.1543 71.9695 15.9486C71.9124 15.7429 71.8152 15.56 71.6781 15.4C71.5524 15.24 71.3867 15.1086 71.1809 15.0057C70.9867 14.9029 70.7409 14.8514 70.4438 14.8514C70.1581 14.8514 69.9124 14.9029 69.7067 15.0057C69.5009 15.0971 69.3295 15.2229 69.1924 15.3829C69.0552 15.5429 68.9467 15.7314 68.8667 15.9486C68.7981 16.1543 68.7467 16.3657 68.7124 16.5829H72.0895ZM79.975 20.2171C80.2264 20.2171 80.4664 20.2114 80.695 20.2C80.9235 20.1886 81.1064 20.1714 81.2435 20.1486V18.2114C81.1407 18.1886 80.9864 18.1657 80.7807 18.1429C80.575 18.12 80.3864 18.1086 80.215 18.1086C79.975 18.1086 79.7464 18.1257 79.5292 18.16C79.3235 18.1829 79.1407 18.2343 78.9807 18.3143C78.8207 18.3943 78.695 18.5029 78.6035 18.64C78.5121 18.7771 78.4664 18.9486 78.4664 19.1543C78.4664 19.5543 78.5978 19.8343 78.8607 19.9943C79.135 20.1429 79.5064 20.2171 79.975 20.2171ZM79.7692 12.7429C80.5235 12.7429 81.1521 12.8286 81.655 13C82.1578 13.1714 82.5578 13.4171 82.855 13.7371C83.1635 14.0571 83.3807 14.4457 83.5064 14.9029C83.6321 15.36 83.695 15.8686 83.695 16.4286V21.7429C83.3292 21.8229 82.8207 21.9143 82.1692 22.0171C81.5178 22.1314 80.7292 22.1886 79.8035 22.1886C79.2207 22.1886 78.6892 22.1371 78.2092 22.0343C77.7407 21.9314 77.335 21.7657 76.9921 21.5371C76.6492 21.2971 76.3864 20.9886 76.2035 20.6114C76.0207 20.2343 75.9292 19.7714 75.9292 19.2229C75.9292 18.6971 76.0321 18.2514 76.2378 17.8857C76.455 17.52 76.7407 17.2286 77.095 17.0114C77.4492 16.7943 77.855 16.64 78.3121 16.5486C78.7692 16.4457 79.2435 16.3943 79.735 16.3943C80.0664 16.3943 80.3578 16.4114 80.6092 16.4457C80.8721 16.4686 81.0835 16.5029 81.2435 16.5486V16.3086C81.2435 15.8743 81.1121 15.5257 80.8492 15.2629C80.5864 15 80.1292 14.8686 79.4778 14.8686C79.0435 14.8686 78.615 14.9029 78.1921 14.9714C77.7692 15.0286 77.4035 15.1143 77.095 15.2286L76.7692 13.1714C76.9178 13.1257 77.1007 13.08 77.3178 13.0343C77.5464 12.9771 77.7921 12.9314 78.055 12.8971C78.3178 12.8514 78.5921 12.8171 78.8778 12.7943C79.175 12.76 79.4721 12.7429 79.7692 12.7429ZM90.959 17.2171C90.959 16.3943 90.8504 15.8114 90.6333 15.4686C90.4275 15.1257 90.0675 14.9543 89.5533 14.9543C89.3933 14.9543 89.2275 14.9657 89.0561 14.9886C88.8847 15 88.719 15.0171 88.559 15.04V22H86.0047V13.2914C86.2218 13.2343 86.4733 13.1771 86.759 13.12C87.0561 13.0514 87.3647 12.9943 87.6847 12.9486C88.0161 12.8914 88.3533 12.8514 88.6961 12.8286C89.039 12.7943 89.3761 12.7771 89.7075 12.7771C90.359 12.7771 90.8847 12.8629 91.2847 13.0343C91.6961 13.1943 92.0333 13.3886 92.2961 13.6171C92.6618 13.3543 93.079 13.1486 93.5475 13C94.0275 12.8514 94.4675 12.7771 94.8675 12.7771C95.5875 12.7771 96.1761 12.88 96.6333 13.0857C97.1018 13.28 97.4733 13.56 97.7475 13.9257C98.0218 14.2914 98.2104 14.7257 98.3133 15.2286C98.4161 15.7314 98.4675 16.2914 98.4675 16.9086V22H95.9133V17.2171C95.9133 16.3943 95.8047 15.8114 95.5875 15.4686C95.3818 15.1257 95.0218 14.9543 94.5075 14.9543C94.3704 14.9543 94.1761 14.9886 93.9247 15.0571C93.6847 15.1257 93.4847 15.2114 93.3247 15.3143C93.4047 15.5771 93.4561 15.8571 93.479 16.1543C93.5018 16.44 93.5133 16.7486 93.5133 17.08V22H90.959V17.2171Z" fill="#2A3B47"/>
</svg>
